<?xml version="1.0" encoding="utf-8"?>
<!-- Generator: Adobe Illustrator 26.0.1, SVG Export Plug-In . SVG Version: 6.00 Build 0)  -->
<!DOCTYPE svg PUBLIC "-//W3C//DTD SVG 1.1//EN" "http://www.w3.org/Graphics/SVG/1.1/DTD/svg11.dtd" [
	<!ENTITY ns_extend "http://ns.adobe.com/Extensibility/1.0/">
	<!ENTITY ns_ai "http://ns.adobe.com/AdobeIllustrator/10.0/">
	<!ENTITY ns_graphs "http://ns.adobe.com/Graphs/1.0/">
	<!ENTITY ns_vars "http://ns.adobe.com/Variables/1.0/">
	<!ENTITY ns_imrep "http://ns.adobe.com/ImageReplacement/1.0/">
	<!ENTITY ns_sfw "http://ns.adobe.com/SaveForWeb/1.0/">
	<!ENTITY ns_custom "http://ns.adobe.com/GenericCustomNamespace/1.0/">
	<!ENTITY ns_adobe_xpath "http://ns.adobe.com/XPath/1.0/">
]>
<svg version="1.1" xmlns:x="&ns_extend;" xmlns:i="&ns_ai;" xmlns:graph="&ns_graphs;"
	 xmlns="http://www.w3.org/2000/svg" xmlns:xlink="http://www.w3.org/1999/xlink" x="0px" y="0px" width="1000px" height="625px"
	 viewBox="0 0 1000 625" style="enable-background:new 0 0 1000 625;" xml:space="preserve">
<style type="text/css">
	.st0{fill:#FFFFFF;}
	.st1{fill:#D2374E;}
	.st2{fill:none;stroke:#D2374E;stroke-width:2;stroke-linecap:round;stroke-linejoin:round;}
	.st3{fill:none;stroke:#D2374E;stroke-width:2;stroke-linecap:round;stroke-linejoin:round;stroke-dasharray:3.4615,5.7692;}
	.st4{fill:none;stroke:#D2374E;stroke-width:2;stroke-linecap:round;stroke-linejoin:round;stroke-miterlimit:10;}
	.st5{fill:none;stroke:#D2374E;stroke-width:3;stroke-linecap:round;stroke-linejoin:round;}
	.st6{fill:none;stroke:#D2374E;stroke-width:3;stroke-linecap:round;stroke-linejoin:round;stroke-dasharray:2.9922,5.9844;}
	.st7{fill:none;stroke:#D2374E;stroke-width:3;stroke-linecap:round;stroke-linejoin:round;stroke-dasharray:3.0389,6.0777;}
	.st8{fill:none;stroke:#D2374E;stroke-width:3;stroke-linecap:round;stroke-linejoin:round;stroke-dasharray:3.0349,6.0697;}
	.st9{fill:none;stroke:#D2374E;stroke-width:3;stroke-linecap:round;stroke-linejoin:round;stroke-dasharray:3.036,6.072;}
	.st10{fill:none;stroke:#D2374E;stroke-width:3;stroke-linecap:round;stroke-linejoin:round;stroke-dasharray:3.0401,6.0803;}
	.st11{fill:none;stroke:#D2374E;stroke-width:3;stroke-linecap:round;stroke-linejoin:round;stroke-dasharray:3.0012,6.0023;}
	.st12{fill:none;stroke:#D2374E;stroke-width:3;stroke-linecap:round;stroke-linejoin:round;stroke-dasharray:2.9978,5.9957;}
	.st13{fill:none;stroke:#D2374E;stroke-width:3;stroke-linecap:round;stroke-linejoin:round;stroke-dasharray:2.9716,5.9433;}
	.st14{fill:none;stroke:#D2374E;stroke-width:3;stroke-linecap:round;stroke-linejoin:round;stroke-dasharray:2.9578,5.9156;}
	.st15{fill:none;stroke:#D2374E;stroke-width:3;stroke-linecap:round;stroke-linejoin:round;stroke-dasharray:2.9985,5.997;}
	.st16{fill:none;stroke:#D2374E;stroke-width:3;stroke-linecap:round;stroke-linejoin:round;stroke-dasharray:3.0583,6.1166;}
	.st17{fill:none;stroke:#D2374E;stroke-width:3;stroke-linecap:round;stroke-linejoin:round;stroke-dasharray:2.944,5.888;}
	.st18{fill:none;stroke:#D2374E;stroke-width:3;stroke-linecap:round;stroke-linejoin:round;stroke-dasharray:2.9997,5.9994;}
	.st19{fill:none;stroke:#D2374E;stroke-width:3;stroke-linecap:round;stroke-linejoin:round;stroke-dasharray:3.0191,6.0382;}
	.st20{fill:none;stroke:#D2374E;stroke-width:3;stroke-linecap:round;stroke-linejoin:round;stroke-dasharray:3.0023,6.0047;}
	.st21{fill:none;stroke:#D2374E;stroke-width:3;stroke-linecap:round;stroke-linejoin:round;stroke-dasharray:2.9426,5.8852;}
	.st22{fill:none;stroke:#D2374E;stroke-width:3;stroke-linecap:round;stroke-linejoin:round;stroke-dasharray:3.0366,6.0732;}
	.st23{fill:none;stroke:#D2374E;stroke-width:3;stroke-linecap:round;stroke-linejoin:round;stroke-dasharray:3.0585,6.1171;}
	.st24{fill:none;stroke:#D2374E;stroke-width:3;stroke-linecap:round;stroke-linejoin:round;stroke-dasharray:3.0011,6.0022;}
	.st25{fill:none;stroke:#D2374E;stroke-width:3;stroke-linecap:round;stroke-linejoin:round;stroke-dasharray:2.9658,5.9316;}
	.st26{fill:none;stroke:#D2374E;stroke-width:3;stroke-linecap:round;stroke-linejoin:round;stroke-dasharray:3.0752,6.1504;}
	.st27{fill:none;stroke:#D2374E;stroke-width:3;stroke-linecap:round;stroke-linejoin:round;stroke-dasharray:2.9467,5.8934;}
	.st28{fill:none;stroke:#D2374E;stroke-width:3;stroke-linecap:round;stroke-linejoin:round;stroke-dasharray:3.0122,6.0244;}
	.st29{fill:none;stroke:#D2374E;stroke-width:3;stroke-linecap:round;stroke-linejoin:round;stroke-dasharray:2.9892,5.9784;}
	.st30{fill:none;stroke:#D2374E;stroke-width:3;stroke-linecap:round;stroke-linejoin:round;stroke-dasharray:3.0301,6.0603;}
	.st31{fill:none;stroke:#D2374E;stroke-width:3;stroke-linecap:round;stroke-linejoin:round;stroke-dasharray:2.9953,5.9907;}
	.st32{fill:none;stroke:#D2374E;stroke-width:3;stroke-linecap:round;stroke-linejoin:round;stroke-dasharray:2.9876,5.9752;}
	.st33{fill:none;stroke:#D2374E;stroke-width:3;stroke-linecap:round;stroke-linejoin:round;stroke-dasharray:3.3884,6.7768;}
	.st34{fill:none;stroke:#D2374E;stroke-width:3;stroke-linecap:round;stroke-linejoin:round;stroke-dasharray:3.1613,6.3227;}
	.st35{fill:none;stroke:#D2374E;stroke-width:3;stroke-linecap:round;stroke-linejoin:round;stroke-dasharray:3.0061,6.0122;}
	.st36{fill:none;stroke:#D2374E;stroke-width:3;stroke-linecap:round;stroke-linejoin:round;stroke-dasharray:3.0823,6.1645;}
	.st37{fill:none;stroke:#D2374E;stroke-width:3;stroke-linecap:round;stroke-linejoin:round;stroke-dasharray:2.9976,5.9951;}
	.st38{fill:none;stroke:#D2374E;stroke-width:3;stroke-linecap:round;stroke-linejoin:round;stroke-dasharray:2.9463,5.8927;}
	.st39{fill:none;stroke:#D2374E;stroke-width:3;stroke-linecap:round;stroke-linejoin:round;stroke-dasharray:3.0019,6.0039;}
	.st40{fill:none;stroke:#D2374E;stroke-width:3;stroke-linecap:round;stroke-linejoin:round;stroke-dasharray:3.0666,6.1331;}
	.st41{fill:none;stroke:#D2374E;stroke-width:3;stroke-linecap:round;stroke-linejoin:round;stroke-dasharray:3.0066,6.0131;}
	.st42{fill:none;stroke:#D2374E;stroke-width:3;stroke-linecap:round;stroke-linejoin:round;stroke-dasharray:2.9287,5.8575;}
	.st43{fill:none;stroke:#D2374E;stroke-width:3;stroke-linecap:round;stroke-linejoin:round;stroke-dasharray:3.0092,6.0184;}
	.st44{fill:none;stroke:#D2374E;stroke-width:3;stroke-linecap:round;stroke-linejoin:round;stroke-dasharray:3.0005,6.0011;}
	.st45{fill:none;stroke:#D2374E;stroke-width:3;stroke-linecap:round;stroke-linejoin:round;stroke-dasharray:2.9172,5.8343;}
	.st46{fill:none;stroke:#D2374E;stroke-width:3;stroke-linecap:round;stroke-linejoin:round;stroke-dasharray:2.9826,5.9652;}
	.st47{fill:none;stroke:#D2374E;stroke-width:3;stroke-linecap:round;stroke-linejoin:round;stroke-dasharray:3.0044,6.0088;}
	.st48{fill:none;stroke:#D2374E;stroke-width:3;stroke-linecap:round;stroke-linejoin:round;stroke-dasharray:2.8727,5.7455;}
	.st49{fill:none;stroke:#D2374E;stroke-width:3;stroke-linecap:round;stroke-linejoin:round;stroke-dasharray:2.9846,5.9691;}
	.st50{fill:none;stroke:#D2374E;stroke-width:3;stroke-linecap:round;stroke-linejoin:round;stroke-dasharray:3.0837,6.1674;}
	.st51{fill:none;stroke:#D2374E;stroke-width:3;stroke-linecap:round;stroke-linejoin:round;stroke-dasharray:3.0462,6.0923;}
	.st52{fill:none;stroke:#D2374E;stroke-width:3;stroke-linecap:round;stroke-linejoin:round;stroke-dasharray:2.9807,5.9615;}
	.st53{fill:none;stroke:#D2374E;stroke-width:3.25;stroke-linecap:round;stroke-linejoin:round;}
	.st54{fill:none;stroke:#D2374E;stroke-width:3.25;stroke-linecap:round;stroke-linejoin:round;stroke-dasharray:3.9633,6.9357;}
	.st55{fill:none;stroke:#D2374E;stroke-width:3.25;stroke-linecap:round;stroke-linejoin:round;stroke-dasharray:3.923,6.8652;}
	.st56{fill:none;stroke:#D2374E;stroke-width:3.25;stroke-linecap:round;stroke-linejoin:round;stroke-dasharray:3.9367,6.8892;}
	.st57{fill:none;stroke:#D2374E;stroke-width:3.25;stroke-linecap:round;stroke-linejoin:round;stroke-dasharray:4.0752,7.1317;}
	.st58{fill:none;stroke:#D2374E;stroke-width:3.25;stroke-linecap:round;stroke-linejoin:round;stroke-dasharray:3.9608,6.9314;}
	.st59{fill:none;stroke:#D2374E;stroke-width:3.25;stroke-linecap:round;stroke-linejoin:round;stroke-dasharray:4.0595,7.1041;}
	.st60{fill:none;stroke:#D2374E;stroke-width:3.25;stroke-linecap:round;stroke-linejoin:round;stroke-dasharray:3.9458,6.9051;}
	.st61{fill:none;stroke:#D2374E;stroke-width:3.25;stroke-linecap:round;stroke-linejoin:round;stroke-dasharray:4.0472,7.0826;}
	.st62{fill:none;stroke:#D2374E;stroke-width:3.25;stroke-linecap:round;stroke-linejoin:round;stroke-dasharray:3.9726,6.952;}
	.st63{fill:none;stroke:#D2374E;stroke-width:3.25;stroke-linecap:round;stroke-linejoin:round;stroke-dasharray:4.0045,7.0078;}
	.st64{fill:none;stroke:#D2374E;stroke-width:3.25;stroke-linecap:round;stroke-linejoin:round;stroke-dasharray:4.064,7.112;}
	.st65{fill:none;stroke:#D2374E;stroke-width:3.25;stroke-linecap:round;stroke-linejoin:round;stroke-dasharray:3.9078,6.8386;}
	.st66{fill:none;stroke:#D2374E;stroke-width:3.25;stroke-linecap:round;stroke-linejoin:round;stroke-dasharray:3.9247,6.8683;}
	.st67{fill:none;stroke:#D2374E;stroke-width:3.25;stroke-linecap:round;stroke-linejoin:round;stroke-dasharray:3.9486,6.91;}
	.st68{fill:none;stroke:#D2374E;stroke-width:3.25;stroke-linecap:round;stroke-linejoin:round;stroke-dasharray:4.02,7.035;}
	.st69{fill:none;stroke:#D2374E;stroke-width:3.25;stroke-linecap:round;stroke-linejoin:round;stroke-dasharray:3.95,6.9125;}
	.st70{fill:none;stroke:#D2374E;stroke-width:3.25;stroke-linecap:round;stroke-linejoin:round;stroke-dasharray:4.055,7.0962;}
	.st71{fill:none;stroke:#D2374E;stroke-width:3.25;stroke-linecap:round;stroke-linejoin:round;stroke-dasharray:4.0951,7.1663;}
	.st72{fill:none;stroke:#D2374E;stroke-width:3.25;stroke-linecap:round;stroke-linejoin:round;stroke-dasharray:4.0603,7.1055;}
	.st73{fill:none;stroke:#D2374E;stroke-width:3.25;stroke-linecap:round;stroke-linejoin:round;stroke-dasharray:3.9739,6.9544;}
	.st74{fill:none;stroke:#D2374E;stroke-width:3.25;stroke-linecap:round;stroke-linejoin:round;stroke-dasharray:3.9955,6.9922;}
	.st75{fill:none;stroke:#D2374E;stroke-width:3.25;stroke-linecap:round;stroke-linejoin:round;stroke-dasharray:4.0716,7.1252;}
	.st76{fill:none;stroke:#D2374E;stroke-width:3.25;stroke-linecap:round;stroke-linejoin:round;stroke-dasharray:3.9834,6.9709;}
	.st77{fill:none;stroke:#D2374E;stroke-width:2.75;stroke-linecap:round;stroke-linejoin:round;stroke-miterlimit:10;}
	.st78{fill:none;stroke:#D2374E;stroke-width:3.5;stroke-linecap:round;stroke-linejoin:round;stroke-miterlimit:10;}
</style>
<metadata>
	<sfw  xmlns="&ns_sfw;">
		<slices></slices>
		<sliceSourceBounds  bottomLeftOrigin="true" height="11503.799" width="5078.768" x="-2657.768" y="-2314"></sliceSourceBounds>
	</sfw>
</metadata>
<g id="FILL-BACKGROUND">
	<rect y="0" class="st0" width="1000" height="625"/>
</g>
<g id="N-DIMENSIONS">
	<g id="MTEXT_00000163773863106368526580000008374211262285647548_">
		<g>
			<g>
				<path class="st1" d="M790.975,178.444V160.99h6.886c1.324,0,2.452,0.251,3.384,0.754c0.932,0.503,1.643,1.199,2.135,2.088
					c0.491,0.889,0.737,1.914,0.737,3.073c0,1.159-0.25,2.182-0.75,3.068s-1.223,1.577-2.169,2.071
					c-0.946,0.494-2.09,0.741-3.431,0.741h-4.389v-2.958h3.792c0.71,0,1.297-0.124,1.76-0.371c0.463-0.247,0.81-0.591,1.04-1.031
					c0.23-0.44,0.345-0.947,0.345-1.521c0-0.58-0.115-1.087-0.345-1.521s-0.578-0.772-1.044-1.014s-1.057-0.362-1.773-0.362h-2.488
					v14.438H790.975z"/>
				<path class="st1" d="M810.083,160.99v17.455h-3.631V160.99H810.083z"/>
				<path class="st1" d="M816.713,178.691c-0.835,0-1.58-0.146-2.233-0.439s-1.169-0.727-1.547-1.304s-0.566-1.297-0.566-2.161
					c0-0.727,0.133-1.338,0.4-1.833c0.267-0.494,0.631-0.892,1.091-1.193c0.46-0.301,0.984-0.529,1.572-0.682
					c0.588-0.153,1.206-0.261,1.854-0.324c0.761-0.08,1.375-0.155,1.841-0.226c0.466-0.071,0.804-0.177,1.014-0.319
					c0.21-0.142,0.315-0.352,0.315-0.631v-0.051c0-0.54-0.169-0.958-0.507-1.253c-0.338-0.295-0.817-0.443-1.436-0.443
					c-0.653,0-1.173,0.144-1.56,0.431c-0.386,0.287-0.642,0.646-0.767,1.078l-3.358-0.273c0.17-0.795,0.506-1.484,1.006-2.067
					c0.5-0.582,1.146-1.031,1.939-1.347c0.792-0.315,1.711-0.473,2.757-0.473c0.728,0,1.425,0.085,2.092,0.255
					s1.262,0.435,1.781,0.793c0.52,0.358,0.931,0.817,1.231,1.376c0.301,0.56,0.452,1.229,0.452,2.007v8.83h-3.443v-1.815h-0.103
					c-0.21,0.409-0.491,0.769-0.844,1.078c-0.352,0.31-0.775,0.551-1.27,0.725C817.932,178.605,817.361,178.691,816.713,178.691z
					 M817.753,176.186c0.534,0,1.005-0.107,1.415-0.32s0.73-0.501,0.963-0.865c0.233-0.363,0.349-0.775,0.349-1.236v-1.389
					c-0.114,0.074-0.269,0.141-0.464,0.201c-0.196,0.06-0.417,0.113-0.661,0.162s-0.489,0.091-0.733,0.128s-0.466,0.07-0.665,0.098
					c-0.426,0.062-0.798,0.162-1.117,0.298c-0.318,0.136-0.565,0.319-0.741,0.549c-0.176,0.23-0.264,0.516-0.264,0.857
					c0,0.494,0.18,0.871,0.541,1.129C816.737,176.057,817.196,176.186,817.753,176.186z"/>
				<path class="st1" d="M830.537,170.876v7.568h-3.631v-13.091h3.46v2.31h0.153c0.29-0.761,0.775-1.365,1.458-1.811
					c0.682-0.446,1.508-0.669,2.48-0.669c0.909,0,1.702,0.199,2.378,0.597c0.676,0.397,1.202,0.964,1.577,1.7
					s0.562,1.612,0.562,2.629v8.335h-3.631v-7.688c0.006-0.801-0.199-1.428-0.613-1.879c-0.415-0.452-0.986-0.677-1.713-0.677
					c-0.489,0-0.919,0.105-1.291,0.315c-0.372,0.21-0.662,0.516-0.87,0.917C830.649,169.832,830.542,170.313,830.537,170.876z"/>
			</g>
		</g>
	</g>
	<g>
		<g>
			<g id="MTEXT_00000181062097233850856800000004124522408013935286_">
				<g>
					<g>
						<g>
							<path class="st1" d="M512.406,53.771c-0.073-0.087-0.11-0.19-0.11-0.31l0.04-0.18l5-11.7h-6.6
								c-0.134,0-0.244-0.043-0.33-0.13c-0.087-0.086-0.13-0.196-0.13-0.33v-0.74c0-0.146,0.04-0.263,0.12-0.35
								c0.079-0.086,0.192-0.13,0.34-0.13h8.16c0.146,0,0.26,0.043,0.34,0.13c0.08,0.087,0.12,0.204,0.12,0.35v0.68
								c0,0.24-0.054,0.5-0.16,0.78l-4.94,11.56c-0.066,0.147-0.14,0.267-0.22,0.36c-0.08,0.094-0.193,0.14-0.34,0.14h-1
								C512.576,53.901,512.479,53.858,512.406,53.771z"/>
							<path class="st1" d="M520.066,53.771c-0.087-0.087-0.131-0.197-0.131-0.33v-1.38c0-0.133,0.044-0.247,0.131-0.34
								c0.086-0.093,0.196-0.14,0.329-0.14h1.381c0.133,0,0.243,0.047,0.329,0.14c0.087,0.094,0.131,0.207,0.131,0.34v1.38
								c0,0.133-0.044,0.243-0.131,0.33c-0.086,0.087-0.196,0.13-0.329,0.13h-1.381C520.263,53.901,520.152,53.858,520.066,53.771z"
								/>
							<path class="st1" d="M527.006,53.591c-0.793-0.34-1.409-0.83-1.85-1.47c-0.44-0.64-0.66-1.387-0.66-2.24
								c0-0.787,0.196-1.477,0.59-2.07s0.924-1.05,1.59-1.37c-0.533-0.307-0.946-0.71-1.239-1.21c-0.294-0.5-0.44-1.09-0.44-1.77
								c0-1.16,0.434-2.077,1.3-2.75c0.867-0.673,2.007-1.01,3.42-1.01s2.551,0.333,3.41,1c0.86,0.667,1.29,1.587,1.29,2.76
								c0,0.667-0.146,1.25-0.439,1.75c-0.294,0.5-0.7,0.91-1.221,1.23c0.667,0.32,1.197,0.777,1.591,1.37
								c0.393,0.593,0.589,1.29,0.589,2.09c0,0.854-0.22,1.597-0.659,2.23c-0.44,0.633-1.057,1.12-1.851,1.46
								c-0.793,0.34-1.696,0.51-2.71,0.51C528.703,54.102,527.8,53.931,527.006,53.591z M532.086,51.821
								c0.634-0.48,0.95-1.12,0.95-1.92s-0.316-1.44-0.95-1.92c-0.633-0.48-1.423-0.72-2.37-0.72c-0.96,0-1.757,0.24-2.39,0.72
								c-0.634,0.48-0.95,1.12-0.95,1.92s0.316,1.44,0.95,1.92c0.633,0.48,1.43,0.72,2.39,0.72
								C530.663,52.542,531.453,52.301,532.086,51.821z M531.776,45.102c0.56-0.4,0.84-0.933,0.84-1.6c0-0.68-0.277-1.223-0.83-1.63
								c-0.554-0.407-1.243-0.61-2.07-0.61c-0.84,0-1.533,0.204-2.08,0.61s-0.819,0.95-0.819,1.63c0,0.68,0.272,1.223,0.819,1.63
								s1.24,0.61,2.08,0.61C530.529,45.715,531.216,45.501,531.776,45.102z"/>
							<path class="st1" d="M537.266,43.381c-0.061-0.08-0.077-0.18-0.05-0.3l0.439-2.8c0.054-0.386,0.24-0.58,0.561-0.58h1.279
								c0.094,0,0.17,0.034,0.23,0.1c0.06,0.067,0.09,0.147,0.09,0.24c0,0.133-0.02,0.24-0.06,0.32l-1.04,2.7
								c-0.067,0.146-0.141,0.257-0.221,0.33s-0.199,0.11-0.359,0.11h-0.62C537.408,43.501,537.325,43.461,537.266,43.381z
								 M540.405,43.381c-0.06-0.08-0.077-0.18-0.05-0.3l0.44-2.8c0.053-0.386,0.239-0.58,0.56-0.58h1.28
								c0.093,0,0.17,0.034,0.229,0.1c0.061,0.067,0.09,0.147,0.09,0.24c0,0.133-0.02,0.24-0.06,0.32l-1.04,2.7
								c-0.067,0.146-0.14,0.257-0.22,0.33s-0.2,0.11-0.36,0.11h-0.62C540.549,43.501,540.466,43.461,540.405,43.381z"/>
							<path class="st1" d="M550.275,57.931c-0.08-0.086-0.12-0.197-0.12-0.33v-21.16c0-0.133,0.04-0.243,0.12-0.33
								c0.08-0.086,0.187-0.13,0.319-0.13h0.74c0.133,0,0.243,0.043,0.33,0.13c0.087,0.087,0.13,0.197,0.13,0.33v21.16
								c0,0.133-0.043,0.243-0.13,0.33c-0.087,0.087-0.197,0.13-0.33,0.13h-0.74C550.462,58.062,550.355,58.018,550.275,57.931z"/>
							<path class="st1" d="M563.395,53.771c-0.08-0.087-0.12-0.197-0.12-0.33v-11.28l-3.359,2.58
								c-0.094,0.08-0.194,0.12-0.301,0.12c-0.12,0-0.233-0.066-0.34-0.2l-0.479-0.62c-0.067-0.093-0.101-0.187-0.101-0.28
								c0-0.146,0.066-0.267,0.2-0.36l4.34-3.36c0.146-0.093,0.32-0.14,0.521-0.14h0.939c0.134,0,0.243,0.043,0.33,0.13
								c0.087,0.087,0.13,0.197,0.13,0.33v13.08c0,0.133-0.043,0.243-0.13,0.33s-0.196,0.13-0.33,0.13h-0.979
								C563.581,53.901,563.475,53.858,563.395,53.771z"/>
							<path class="st1" d="M570.284,53.771c-0.073-0.087-0.11-0.19-0.11-0.31c0-0.093,0.026-0.18,0.08-0.26l3.08-4.28
								c-0.32,0.08-0.693,0.12-1.12,0.12c-0.96-0.013-1.8-0.237-2.52-0.67c-0.721-0.433-1.271-1-1.65-1.7s-0.57-1.45-0.57-2.25
								s0.19-1.56,0.57-2.28c0.38-0.72,0.946-1.307,1.7-1.76c0.753-0.453,1.663-0.68,2.729-0.68c1.067,0,1.98,0.22,2.74,0.66
								s1.333,1.017,1.721,1.73c0.386,0.713,0.579,1.477,0.579,2.29c0,0.733-0.13,1.38-0.39,1.94s-0.604,1.14-1.03,1.74l-3.88,5.44
								c-0.093,0.12-0.184,0.217-0.27,0.29c-0.087,0.073-0.21,0.11-0.37,0.11h-1C570.454,53.901,570.357,53.858,570.284,53.771z
								 M574.054,47.082c0.48-0.253,0.86-0.61,1.141-1.07c0.279-0.46,0.42-0.99,0.42-1.59c0-0.613-0.141-1.153-0.42-1.62
								c-0.28-0.466-0.66-0.827-1.141-1.08c-0.479-0.253-1.007-0.38-1.58-0.38c-0.56,0-1.076,0.127-1.55,0.38
								c-0.474,0.253-0.85,0.614-1.13,1.08c-0.28,0.467-0.42,1.007-0.42,1.62c0,0.6,0.14,1.13,0.42,1.59s0.653,0.817,1.12,1.07
								s0.986,0.38,1.56,0.38S573.574,47.335,574.054,47.082z"/>
							<path class="st1" d="M578.704,53.771c-0.087-0.087-0.13-0.197-0.13-0.33v-1.38c0-0.133,0.043-0.247,0.13-0.34
								c0.087-0.093,0.196-0.14,0.33-0.14h1.38c0.133,0,0.243,0.047,0.33,0.14c0.087,0.094,0.13,0.207,0.13,0.34v1.38
								c0,0.133-0.043,0.243-0.13,0.33s-0.197,0.13-0.33,0.13h-1.38C578.9,53.901,578.791,53.858,578.704,53.771z"/>
							<path class="st1" d="M585.644,53.591c-0.793-0.34-1.409-0.83-1.85-1.47c-0.44-0.64-0.659-1.387-0.659-2.24
								c0-0.787,0.195-1.477,0.589-2.07s0.924-1.05,1.59-1.37c-0.533-0.307-0.946-0.71-1.239-1.21c-0.294-0.5-0.44-1.09-0.44-1.77
								c0-1.16,0.434-2.077,1.3-2.75c0.867-0.673,2.007-1.01,3.42-1.01s2.551,0.333,3.41,1c0.86,0.667,1.29,1.587,1.29,2.76
								c0,0.667-0.146,1.25-0.439,1.75c-0.294,0.5-0.7,0.91-1.221,1.23c0.667,0.32,1.197,0.777,1.591,1.37
								c0.393,0.593,0.59,1.29,0.59,2.09c0,0.854-0.221,1.597-0.66,2.23c-0.44,0.633-1.057,1.12-1.851,1.46
								c-0.793,0.34-1.696,0.51-2.71,0.51C587.341,54.102,586.438,53.931,585.644,53.591z M590.724,51.821
								c0.634-0.48,0.95-1.12,0.95-1.92s-0.316-1.44-0.95-1.92c-0.633-0.48-1.423-0.72-2.37-0.72c-0.96,0-1.757,0.24-2.39,0.72
								c-0.634,0.48-0.95,1.12-0.95,1.92s0.316,1.44,0.95,1.92c0.633,0.48,1.43,0.72,2.39,0.72
								C589.301,52.542,590.091,52.301,590.724,51.821z M590.414,45.102c0.56-0.4,0.84-0.933,0.84-1.6c0-0.68-0.277-1.223-0.83-1.63
								c-0.554-0.407-1.243-0.61-2.07-0.61c-0.84,0-1.533,0.204-2.08,0.61s-0.819,0.95-0.819,1.63c0,0.68,0.272,1.223,0.819,1.63
								s1.24,0.61,2.08,0.61C589.167,45.715,589.854,45.501,590.414,45.102z"/>
							<path class="st1" d="M601.933,52.892c-0.8-0.807-1.22-1.937-1.26-3.39l-0.02-0.8l0.02-0.8c0.04-1.453,0.46-2.583,1.26-3.39
								c0.801-0.807,1.913-1.21,3.341-1.21c0.96,0,1.77,0.17,2.43,0.51c0.66,0.34,1.153,0.763,1.479,1.27
								c0.327,0.507,0.504,1.013,0.53,1.52c0.014,0.12-0.03,0.227-0.13,0.32s-0.21,0.14-0.33,0.14h-0.88
								c-0.134,0-0.233-0.03-0.3-0.09c-0.067-0.06-0.134-0.17-0.2-0.33c-0.24-0.653-0.57-1.117-0.99-1.39s-0.95-0.41-1.59-0.41
								c-0.84,0-1.507,0.26-2,0.78s-0.76,1.313-0.8,2.38l-0.021,0.7l0.021,0.7c0.04,1.067,0.307,1.86,0.8,2.38s1.16,0.78,2,0.78
								c0.653,0,1.187-0.137,1.6-0.41c0.414-0.273,0.74-0.736,0.98-1.39c0.066-0.16,0.133-0.27,0.2-0.33
								c0.066-0.06,0.166-0.09,0.3-0.09h0.88c0.12,0,0.23,0.047,0.33,0.14s0.144,0.2,0.13,0.32c-0.026,0.494-0.203,0.994-0.53,1.5
								c-0.326,0.507-0.819,0.934-1.479,1.28c-0.66,0.346-1.47,0.52-2.43,0.52C603.846,54.102,602.733,53.698,601.933,52.892z"/>
							<path class="st1" d="M612.243,53.771c-0.087-0.087-0.13-0.197-0.13-0.33v-9.48c0-0.133,0.043-0.243,0.13-0.33
								c0.087-0.086,0.196-0.13,0.33-0.13h0.84c0.133,0,0.24,0.043,0.32,0.13c0.08,0.087,0.12,0.197,0.12,0.33v0.68
								c0.72-0.894,1.692-1.34,2.92-1.34c1.466,0,2.506,0.614,3.119,1.84c0.32-0.56,0.777-1.007,1.37-1.34
								c0.594-0.333,1.257-0.5,1.99-0.5c1.093,0,1.986,0.374,2.68,1.12c0.693,0.747,1.04,1.827,1.04,3.24v5.78
								c0,0.133-0.043,0.243-0.13,0.33s-0.196,0.13-0.33,0.13h-0.859c-0.134,0-0.244-0.043-0.33-0.13
								c-0.087-0.087-0.13-0.197-0.13-0.33v-5.6c0-1.066-0.221-1.83-0.66-2.29c-0.44-0.46-1.021-0.69-1.74-0.69
								c-0.64,0-1.189,0.237-1.65,0.71c-0.46,0.474-0.689,1.23-0.689,2.27v5.6c0,0.133-0.044,0.243-0.13,0.33
								c-0.087,0.087-0.197,0.13-0.33,0.13h-0.88c-0.134,0-0.244-0.043-0.33-0.13c-0.087-0.087-0.13-0.197-0.13-0.33v-5.6
								c0-1.053-0.23-1.813-0.69-2.28s-1.03-0.7-1.71-0.7c-0.64,0-1.189,0.233-1.649,0.7c-0.461,0.467-0.69,1.22-0.69,2.26v5.62
								c0,0.133-0.044,0.243-0.13,0.33c-0.087,0.087-0.197,0.13-0.33,0.13h-0.88C612.439,53.901,612.33,53.858,612.243,53.771z"/>
						</g>
					</g>
				</g>
			</g>
			<g>
				<g>
					<line class="st2" x1="627.089" y1="66.855" x2="625.589" y2="66.855"/>
					<line class="st3" x1="619.82" y1="66.855" x2="613.474" y2="66.855"/>
					<line class="st2" x1="610.589" y1="66.855" x2="609.089" y2="66.855"/>
				</g>
			</g>
		</g>
		<g>
			<g id="POLYLINE_00000088115291331300532690000005788647314227632824_">
				<polyline class="st4" points="911.485,439.597 918.832,446.944 911.485,454.292 				"/>
			</g>
			<g id="POLYLINE_00000029036984733422252830000006900075993933668277_">
				<polyline class="st4" points="719.526,439.597 712.178,446.944 719.526,454.292 				"/>
			</g>
			<g id="MTEXT_00000082365772967228281180000003493281656663585664_">
				<g>
					<g>
						<g>
							<path class="st1" d="M763.681,453.503c-0.76-0.34-1.337-0.783-1.729-1.33c-0.394-0.546-0.604-1.113-0.631-1.7
								c0-0.12,0.04-0.217,0.12-0.29s0.181-0.11,0.3-0.11h0.9c0.146,0,0.267,0.03,0.36,0.09c0.093,0.06,0.166,0.177,0.22,0.35
								c0.173,0.68,0.55,1.16,1.13,1.44c0.58,0.28,1.264,0.42,2.05,0.42c0.96,0,1.724-0.23,2.29-0.69s0.851-1.117,0.851-1.97
								c0-1.626-0.994-2.44-2.98-2.44h-1.88c-0.134,0-0.243-0.043-0.33-0.13c-0.087-0.086-0.13-0.197-0.13-0.33v-0.52
								c0-0.2,0.073-0.373,0.22-0.52l3.9-4.32h-5.92c-0.134,0-0.243-0.04-0.33-0.12s-0.13-0.187-0.13-0.32v-0.72
								c0-0.146,0.043-0.263,0.13-0.35c0.087-0.086,0.196-0.13,0.33-0.13h7.92c0.146,0,0.263,0.043,0.35,0.13
								c0.087,0.087,0.13,0.204,0.13,0.35v0.66c0,0.147-0.066,0.3-0.199,0.46l-3.9,4.38h0.32c1.359,0.04,2.437,0.394,3.229,1.06
								c0.793,0.667,1.19,1.64,1.19,2.92c0,0.88-0.217,1.637-0.65,2.27s-1.037,1.12-1.81,1.46c-0.773,0.34-1.647,0.51-2.62,0.51
								C765.341,454.014,764.44,453.843,763.681,453.503z"/>
							<path class="st1" d="M773.91,453.684c-0.087-0.087-0.13-0.197-0.13-0.33v-1.38c0-0.133,0.043-0.247,0.13-0.34
								c0.087-0.093,0.196-0.14,0.33-0.14h1.38c0.133,0,0.243,0.047,0.33,0.14c0.087,0.094,0.13,0.207,0.13,0.34v1.38
								c0,0.133-0.043,0.243-0.13,0.33s-0.197,0.13-0.33,0.13h-1.38C774.106,453.813,773.997,453.771,773.91,453.684z"/>
							<path class="st1" d="M781.28,453.684c-0.08-0.087-0.12-0.197-0.12-0.33v-11.28l-3.359,2.58
								c-0.094,0.08-0.194,0.12-0.301,0.12c-0.12,0-0.233-0.066-0.34-0.2l-0.479-0.62c-0.067-0.093-0.101-0.187-0.101-0.28
								c0-0.146,0.066-0.267,0.2-0.36l4.34-3.36c0.146-0.093,0.32-0.14,0.521-0.14h0.939c0.134,0,0.243,0.043,0.33,0.13
								c0.087,0.087,0.13,0.197,0.13,0.33v13.08c0,0.133-0.043,0.243-0.13,0.33s-0.196,0.13-0.33,0.13h-0.979
								C781.467,453.813,781.36,453.771,781.28,453.684z"/>
							<path class="st1" d="M789.78,453.684c-0.08-0.087-0.12-0.197-0.12-0.33v-11.28l-3.36,2.58c-0.094,0.08-0.193,0.12-0.3,0.12
								c-0.12,0-0.233-0.066-0.34-0.2l-0.48-0.62c-0.066-0.093-0.1-0.187-0.1-0.28c0-0.146,0.066-0.267,0.2-0.36l4.34-3.36
								c0.146-0.093,0.319-0.14,0.52-0.14h0.94c0.133,0,0.243,0.043,0.33,0.13c0.086,0.087,0.13,0.197,0.13,0.33v13.08
								c0,0.133-0.044,0.243-0.13,0.33c-0.087,0.087-0.197,0.13-0.33,0.13h-0.98C789.967,453.813,789.859,453.771,789.78,453.684z"
								/>
							<path class="st1" d="M794.29,443.293c-0.061-0.08-0.077-0.18-0.05-0.3l0.439-2.8c0.054-0.386,0.24-0.58,0.561-0.58h1.279
								c0.094,0,0.17,0.034,0.23,0.1c0.06,0.067,0.09,0.147,0.09,0.24c0,0.133-0.02,0.24-0.06,0.32l-1.04,2.7
								c-0.067,0.146-0.141,0.257-0.221,0.33s-0.199,0.11-0.359,0.11h-0.62C794.433,443.414,794.35,443.374,794.29,443.293z
								 M797.43,443.293c-0.06-0.08-0.077-0.18-0.05-0.3l0.44-2.8c0.053-0.386,0.239-0.58,0.56-0.58h1.28
								c0.093,0,0.17,0.034,0.229,0.1c0.061,0.067,0.09,0.147,0.09,0.24c0,0.133-0.02,0.24-0.06,0.32l-1.04,2.7
								c-0.067,0.146-0.14,0.257-0.22,0.33s-0.2,0.11-0.36,0.11h-0.62C797.573,443.414,797.49,443.374,797.43,443.293z"/>
							<path class="st1" d="M807.3,457.843c-0.08-0.086-0.12-0.197-0.12-0.33v-21.16c0-0.133,0.04-0.243,0.12-0.33
								c0.08-0.086,0.187-0.13,0.319-0.13h0.74c0.133,0,0.243,0.043,0.33,0.13c0.087,0.087,0.13,0.197,0.13,0.33v21.16
								c0,0.133-0.043,0.243-0.13,0.33c-0.087,0.087-0.197,0.13-0.33,0.13h-0.74C807.486,457.974,807.38,457.93,807.3,457.843z"/>
							<path class="st1" d="M817.929,453.684c-0.073-0.087-0.109-0.19-0.109-0.31l0.04-0.18l4.999-11.7h-6.6
								c-0.133,0-0.243-0.043-0.33-0.13c-0.087-0.086-0.13-0.196-0.13-0.33v-0.74c0-0.146,0.04-0.263,0.12-0.35
								c0.08-0.086,0.193-0.13,0.34-0.13h8.16c0.146,0,0.26,0.043,0.34,0.13c0.08,0.087,0.12,0.204,0.12,0.35v0.68
								c0,0.24-0.054,0.5-0.16,0.78l-4.939,11.56c-0.067,0.147-0.141,0.267-0.221,0.36c-0.08,0.094-0.193,0.14-0.34,0.14h-1
								C818.099,453.813,818.002,453.771,817.929,453.684z"/>
							<path class="st1" d="M825.589,453.684c-0.087-0.087-0.131-0.197-0.131-0.33v-1.38c0-0.133,0.044-0.247,0.131-0.34
								c0.086-0.093,0.196-0.14,0.329-0.14h1.381c0.133,0,0.243,0.047,0.329,0.14c0.087,0.094,0.131,0.207,0.131,0.34v1.38
								c0,0.133-0.044,0.243-0.131,0.33c-0.086,0.087-0.196,0.13-0.329,0.13h-1.381
								C825.785,453.813,825.675,453.771,825.589,453.684z"/>
							<path class="st1" d="M831.788,453.684c-0.073-0.087-0.109-0.19-0.109-0.31c0-0.093,0.026-0.18,0.08-0.26l3.08-4.28
								c-0.32,0.08-0.693,0.12-1.12,0.12c-0.96-0.013-1.8-0.237-2.521-0.67c-0.72-0.433-1.27-1-1.649-1.7s-0.57-1.45-0.57-2.25
								s0.19-1.56,0.57-2.28c0.38-0.72,0.946-1.307,1.699-1.76c0.754-0.453,1.663-0.68,2.73-0.68c1.066,0,1.979,0.22,2.74,0.66
								c0.76,0.44,1.333,1.017,1.72,1.73c0.387,0.713,0.58,1.477,0.58,2.29c0,0.733-0.13,1.38-0.39,1.94
								c-0.261,0.56-0.604,1.14-1.03,1.74l-3.88,5.44c-0.094,0.12-0.184,0.217-0.271,0.29s-0.21,0.11-0.37,0.11h-1
								C831.958,453.813,831.861,453.771,831.788,453.684z M835.559,446.994c0.479-0.253,0.86-0.61,1.14-1.07
								c0.28-0.46,0.42-0.99,0.42-1.59c0-0.613-0.14-1.153-0.42-1.62c-0.279-0.466-0.66-0.827-1.14-1.08
								c-0.48-0.253-1.007-0.38-1.58-0.38c-0.56,0-1.077,0.127-1.55,0.38c-0.474,0.253-0.851,0.614-1.13,1.08
								c-0.28,0.467-0.42,1.007-0.42,1.62c0,0.6,0.14,1.13,0.42,1.59c0.279,0.46,0.652,0.817,1.12,1.07
								c0.466,0.253,0.986,0.38,1.56,0.38S835.078,447.247,835.559,446.994z"/>
							<path class="st1" d="M847.258,452.804c-0.8-0.807-1.22-1.937-1.26-3.39l-0.021-0.8l0.021-0.8
								c0.04-1.453,0.46-2.583,1.26-3.39c0.8-0.807,1.913-1.21,3.34-1.21c0.96,0,1.771,0.17,2.43,0.51
								c0.66,0.34,1.153,0.763,1.48,1.27c0.326,0.507,0.503,1.013,0.53,1.52c0.013,0.12-0.03,0.227-0.13,0.32
								c-0.101,0.093-0.211,0.14-0.33,0.14h-0.881c-0.133,0-0.233-0.03-0.3-0.09s-0.133-0.17-0.2-0.33
								c-0.239-0.653-0.569-1.117-0.989-1.39s-0.95-0.41-1.59-0.41c-0.841,0-1.507,0.26-2,0.78c-0.494,0.52-0.761,1.313-0.801,2.38
								l-0.02,0.7l0.02,0.7c0.04,1.067,0.307,1.86,0.801,2.38c0.493,0.52,1.159,0.78,2,0.78c0.652,0,1.187-0.137,1.6-0.41
								c0.413-0.273,0.74-0.736,0.979-1.39c0.067-0.16,0.134-0.27,0.2-0.33c0.066-0.06,0.167-0.09,0.3-0.09h0.881
								c0.119,0,0.229,0.047,0.33,0.14c0.1,0.093,0.143,0.2,0.13,0.32c-0.027,0.494-0.204,0.994-0.53,1.5
								c-0.327,0.507-0.82,0.934-1.48,1.28c-0.659,0.346-1.47,0.52-2.43,0.52C849.171,454.014,848.058,453.61,847.258,452.804z"/>
							<path class="st1" d="M857.567,453.684c-0.087-0.087-0.13-0.197-0.13-0.33v-9.48c0-0.133,0.043-0.243,0.13-0.33
								c0.087-0.086,0.197-0.13,0.33-0.13h0.84c0.134,0,0.24,0.043,0.32,0.13c0.08,0.087,0.12,0.197,0.12,0.33v0.68
								c0.72-0.894,1.693-1.34,2.92-1.34c1.467,0,2.507,0.614,3.12,1.84c0.32-0.56,0.776-1.007,1.37-1.34
								c0.593-0.333,1.257-0.5,1.99-0.5c1.092,0,1.985,0.374,2.679,1.12c0.693,0.747,1.04,1.827,1.04,3.24v5.78
								c0,0.133-0.043,0.243-0.13,0.33s-0.196,0.13-0.33,0.13h-0.859c-0.134,0-0.244-0.043-0.33-0.13
								c-0.087-0.087-0.13-0.197-0.13-0.33v-5.6c0-1.066-0.221-1.83-0.66-2.29s-1.02-0.69-1.739-0.69c-0.641,0-1.19,0.237-1.65,0.71
								c-0.46,0.474-0.69,1.23-0.69,2.27v5.6c0,0.133-0.043,0.243-0.13,0.33s-0.196,0.13-0.33,0.13h-0.88
								c-0.133,0-0.243-0.043-0.33-0.13s-0.13-0.197-0.13-0.33v-5.6c0-1.053-0.229-1.813-0.689-2.28s-1.03-0.7-1.71-0.7
								c-0.641,0-1.19,0.233-1.65,0.7s-0.69,1.22-0.69,2.26v5.62c0,0.133-0.043,0.243-0.13,0.33s-0.196,0.13-0.33,0.13h-0.88
								C857.765,453.813,857.654,453.771,857.567,453.684z"/>
							<path class="st1" d="M771.45,476.023c-0.674-0.647-1.157-1.65-1.45-3.01c-0.293-1.36-0.439-3.153-0.439-5.38
								c0-2.227,0.146-4.017,0.439-5.37c0.293-1.354,0.776-2.354,1.45-3c0.673-0.647,1.583-0.97,2.729-0.97
								c0.133,0,0.243,0.043,0.33,0.13c0.087,0.087,0.13,0.197,0.13,0.33v0.66c0,0.12-0.04,0.223-0.12,0.31
								c-0.08,0.086-0.173,0.129-0.28,0.129c-0.76,0.013-1.354,0.27-1.779,0.77c-0.427,0.5-0.733,1.307-0.92,2.42
								s-0.28,2.644-0.28,4.59c0,1.96,0.094,3.497,0.28,4.61s0.493,1.92,0.92,2.42c0.426,0.5,1.02,0.756,1.779,0.77
								c0.107,0,0.2,0.043,0.28,0.13c0.08,0.086,0.12,0.19,0.12,0.31v0.66c0,0.133-0.043,0.243-0.13,0.33s-0.197,0.13-0.33,0.13
								C773.033,476.993,772.123,476.669,771.45,476.023z"/>
							<path class="st1" d="M776.819,473.683c-0.08-0.087-0.12-0.197-0.12-0.33v-13.06c0-0.146,0.04-0.263,0.12-0.35
								c0.08-0.086,0.187-0.13,0.32-0.13h4.521c2.013,0,3.466,0.45,4.359,1.35s1.354,2.257,1.38,4.07
								c0.014,0.387,0.021,0.907,0.021,1.56s-0.007,1.18-0.021,1.58c-0.026,1.267-0.229,2.297-0.609,3.09
								c-0.38,0.793-0.978,1.383-1.79,1.77c-0.813,0.387-1.894,0.58-3.24,0.58h-4.62
								C777.006,473.813,776.899,473.77,776.819,473.683z M781.66,472.153c0.933,0,1.676-0.13,2.229-0.39
								c0.553-0.26,0.953-0.667,1.2-1.22c0.246-0.553,0.383-1.303,0.41-2.25c0.026-0.8,0.04-1.3,0.04-1.5
								c0-0.213-0.014-0.707-0.04-1.48c-0.027-1.333-0.344-2.31-0.95-2.93c-0.607-0.62-1.604-0.93-2.99-0.93h-2.979v10.7H781.66z"/>
							<path class="st1" d="M790.17,461.323c-0.087-0.086-0.131-0.196-0.131-0.33v-1.04c0-0.133,0.044-0.246,0.131-0.34
								c0.086-0.093,0.196-0.14,0.329-0.14h1.181c0.133,0,0.246,0.047,0.34,0.14c0.093,0.094,0.14,0.207,0.14,0.34v1.04
								c0,0.133-0.047,0.243-0.14,0.33c-0.094,0.087-0.207,0.13-0.34,0.13h-1.181C790.366,461.453,790.256,461.41,790.17,461.323z
								 M790.329,473.683c-0.087-0.087-0.13-0.197-0.13-0.33v-9.48c0-0.133,0.043-0.243,0.13-0.33c0.087-0.086,0.197-0.13,0.33-0.13
								h0.88c0.134,0,0.243,0.043,0.33,0.13c0.087,0.087,0.13,0.197,0.13,0.33v9.48c0,0.133-0.043,0.243-0.13,0.33
								s-0.196,0.13-0.33,0.13h-0.88C790.526,473.813,790.416,473.77,790.329,473.683z"/>
							<path class="st1" d="M796.069,473.613c-0.554-0.267-0.993-0.63-1.32-1.09c-0.326-0.46-0.49-0.97-0.49-1.53
								c0-0.88,0.36-1.6,1.08-2.16c0.721-0.56,1.7-0.933,2.94-1.12l3-0.42v-0.58c0-1.373-0.794-2.06-2.38-2.06
								c-0.613,0-1.107,0.124-1.48,0.37c-0.373,0.247-0.646,0.537-0.819,0.87c-0.054,0.133-0.11,0.223-0.17,0.27
								c-0.061,0.047-0.144,0.07-0.25,0.07h-0.78c-0.12,0-0.224-0.043-0.311-0.13c-0.087-0.086-0.13-0.19-0.13-0.31
								c0-0.307,0.144-0.663,0.431-1.07c0.286-0.407,0.729-0.76,1.33-1.06c0.6-0.3,1.333-0.45,2.199-0.45
								c1.493,0,2.563,0.347,3.21,1.04c0.646,0.693,0.971,1.56,0.971,2.6v6.5c0,0.133-0.044,0.243-0.13,0.33
								c-0.087,0.087-0.197,0.13-0.33,0.13h-0.881c-0.133,0-0.239-0.043-0.319-0.13s-0.12-0.197-0.12-0.33v-0.88
								c-0.294,0.44-0.72,0.807-1.28,1.1c-0.56,0.293-1.28,0.44-2.16,0.44C797.226,474.013,796.622,473.879,796.069,473.613z
								 M800.439,471.693c0.56-0.573,0.84-1.406,0.84-2.5v-0.56l-2.34,0.34c-0.96,0.133-1.688,0.36-2.181,0.68
								c-0.493,0.32-0.739,0.72-0.739,1.2c0,0.547,0.223,0.967,0.67,1.26c0.446,0.293,0.977,0.44,1.59,0.44
								C799.159,472.553,799.879,472.267,800.439,471.693z"/>
							<path class="st1" d="M806.129,473.683c-0.087-0.087-0.13-0.197-0.13-0.33v-9.48c0-0.133,0.043-0.243,0.13-0.33
								c0.087-0.086,0.197-0.13,0.33-0.13h0.84c0.134,0,0.24,0.043,0.32,0.13c0.08,0.087,0.12,0.197,0.12,0.33v0.68
								c0.72-0.894,1.693-1.34,2.92-1.34c1.467,0,2.507,0.614,3.12,1.84c0.32-0.56,0.776-1.007,1.37-1.34
								c0.593-0.333,1.257-0.5,1.99-0.5c1.093,0,1.986,0.374,2.68,1.12c0.693,0.747,1.039,1.827,1.039,3.24v5.78
								c0,0.133-0.043,0.243-0.13,0.33c-0.086,0.087-0.196,0.13-0.329,0.13h-0.86c-0.133,0-0.243-0.043-0.33-0.13
								s-0.13-0.197-0.13-0.33v-5.6c0-1.066-0.22-1.83-0.66-2.29c-0.439-0.46-1.02-0.69-1.739-0.69c-0.641,0-1.19,0.237-1.65,0.71
								c-0.46,0.474-0.69,1.23-0.69,2.27v5.6c0,0.133-0.043,0.243-0.13,0.33s-0.196,0.13-0.33,0.13h-0.88
								c-0.133,0-0.243-0.043-0.33-0.13s-0.13-0.197-0.13-0.33v-5.6c0-1.053-0.229-1.813-0.689-2.28s-1.03-0.7-1.71-0.7
								c-0.641,0-1.19,0.233-1.65,0.7s-0.69,1.22-0.69,2.26v5.62c0,0.133-0.043,0.243-0.13,0.33s-0.196,0.13-0.33,0.13h-0.88
								C806.326,473.813,806.216,473.77,806.129,473.683z"/>
							<path class="st1" d="M824.618,472.743c-0.813-0.847-1.26-2.003-1.34-3.47l-0.02-0.68l0.02-0.66
								c0.08-1.44,0.526-2.587,1.34-3.44c0.813-0.854,1.9-1.28,3.261-1.28c1.466,0,2.603,0.467,3.409,1.4
								c0.807,0.934,1.211,2.2,1.211,3.8v0.36c0,0.133-0.044,0.244-0.131,0.33c-0.087,0.087-0.196,0.13-0.33,0.13h-6.939v0.18
								c0.04,0.867,0.307,1.607,0.8,2.22c0.493,0.614,1.146,0.92,1.96,0.92c0.627,0,1.137-0.124,1.53-0.37
								c0.393-0.247,0.689-0.503,0.89-0.77c0.12-0.16,0.213-0.257,0.28-0.29c0.066-0.033,0.18-0.05,0.34-0.05h0.88
								c0.12,0,0.224,0.034,0.311,0.1c0.086,0.067,0.13,0.154,0.13,0.26c0,0.293-0.181,0.647-0.54,1.06
								c-0.36,0.413-0.87,0.77-1.53,1.07s-1.417,0.45-2.27,0.45C826.519,474.013,825.432,473.59,824.618,472.743z M830.679,467.873
								v-0.06c0-0.933-0.254-1.693-0.76-2.28c-0.507-0.587-1.188-0.88-2.04-0.88c-0.867,0-1.547,0.293-2.04,0.88
								c-0.494,0.586-0.74,1.347-0.74,2.28v0.06H830.679z"/>
							<path class="st1" d="M835.778,470.313v-5.36h-1.58c-0.134,0-0.24-0.04-0.32-0.12s-0.12-0.187-0.12-0.32v-0.64
								c0-0.133,0.04-0.243,0.12-0.33c0.08-0.086,0.187-0.13,0.32-0.13h1.58v-3.34c0-0.133,0.04-0.243,0.12-0.329
								c0.08-0.087,0.187-0.13,0.319-0.13h0.881c0.133,0,0.242,0.043,0.329,0.13c0.087,0.086,0.131,0.196,0.131,0.329v3.34h2.479
								c0.133,0,0.243,0.043,0.33,0.13c0.087,0.087,0.13,0.197,0.13,0.33v0.64c0,0.133-0.043,0.24-0.13,0.32s-0.197,0.12-0.33,0.12
								h-2.479v5.22c0,0.68,0.109,1.193,0.329,1.54c0.221,0.347,0.597,0.52,1.131,0.52h1.22c0.133,0,0.24,0.043,0.32,0.13
								c0.079,0.087,0.119,0.197,0.119,0.33v0.66c0,0.133-0.04,0.243-0.119,0.33c-0.08,0.087-0.188,0.13-0.32,0.13h-1.36
								C836.812,473.813,835.778,472.646,835.778,470.313z"/>
							<path class="st1" d="M843.498,472.743c-0.813-0.847-1.26-2.003-1.34-3.47l-0.021-0.68l0.021-0.66
								c0.08-1.44,0.526-2.587,1.34-3.44c0.813-0.854,1.899-1.28,3.26-1.28c1.467,0,2.604,0.467,3.41,1.4
								c0.807,0.934,1.21,2.2,1.21,3.8v0.36c0,0.133-0.043,0.244-0.13,0.33c-0.087,0.087-0.197,0.13-0.33,0.13h-6.94v0.18
								c0.04,0.867,0.307,1.607,0.801,2.22c0.493,0.614,1.146,0.92,1.96,0.92c0.626,0,1.136-0.124,1.529-0.37s0.69-0.503,0.891-0.77
								c0.12-0.16,0.213-0.257,0.279-0.29c0.067-0.033,0.181-0.05,0.341-0.05h0.88c0.12,0,0.223,0.034,0.31,0.1
								c0.087,0.067,0.13,0.154,0.13,0.26c0,0.293-0.18,0.647-0.54,1.06c-0.359,0.413-0.87,0.77-1.529,1.07
								c-0.66,0.3-1.417,0.45-2.271,0.45C845.397,474.013,844.312,473.59,843.498,472.743z M849.558,467.873v-0.06
								c0-0.933-0.253-1.693-0.76-2.28c-0.507-0.587-1.187-0.88-2.04-0.88c-0.867,0-1.547,0.293-2.04,0.88
								c-0.493,0.586-0.74,1.347-0.74,2.28v0.06H849.558z"/>
							<path class="st1" d="M853.948,473.683c-0.087-0.087-0.13-0.197-0.13-0.33v-9.46c0-0.133,0.043-0.247,0.13-0.34
								s0.196-0.14,0.33-0.14h0.84c0.146,0,0.263,0.043,0.35,0.13c0.087,0.087,0.13,0.204,0.13,0.35v0.88
								c0.547-0.907,1.474-1.36,2.78-1.36h0.78c0.146,0,0.26,0.04,0.34,0.12c0.08,0.08,0.12,0.193,0.12,0.34v0.74
								c0,0.134-0.04,0.244-0.12,0.33c-0.08,0.087-0.193,0.13-0.34,0.13h-1.14c-0.733,0-1.311,0.214-1.73,0.64
								c-0.42,0.427-0.63,1.007-0.63,1.74v5.9c0,0.133-0.047,0.243-0.14,0.33c-0.094,0.087-0.207,0.13-0.341,0.13h-0.899
								C854.145,473.813,854.035,473.77,853.948,473.683z"/>
							<path class="st1" d="M859.668,476.863c-0.087-0.087-0.13-0.197-0.13-0.33v-0.66c0-0.12,0.04-0.224,0.12-0.31
								c0.08-0.087,0.173-0.13,0.279-0.13c0.747-0.014,1.337-0.27,1.771-0.77c0.433-0.5,0.743-1.31,0.93-2.43s0.28-2.653,0.28-4.6
								c0-1.946-0.094-3.477-0.28-4.59s-0.497-1.92-0.93-2.42c-0.434-0.5-1.023-0.757-1.771-0.77c-0.106,0-0.199-0.043-0.279-0.129
								c-0.08-0.087-0.12-0.19-0.12-0.31v-0.66c0-0.133,0.043-0.243,0.13-0.33c0.087-0.086,0.189-0.13,0.31-0.13
								c1.146,0,2.057,0.323,2.73,0.97c0.673,0.646,1.156,1.646,1.45,3c0.293,1.353,0.439,3.143,0.439,5.37
								c0,2.227-0.146,4.02-0.439,5.38c-0.294,1.36-0.777,2.363-1.45,3.01c-0.674,0.646-1.584,0.97-2.73,0.97
								C859.857,476.993,859.755,476.95,859.668,476.863z"/>
						</g>
					</g>
				</g>
			</g>
			<g id="POLYLINE_00000182499009303709842900000000499315198305664388_">
				<line class="st4" x1="917.832" y1="446.944" x2="881.628" y2="446.944"/>
			</g>
			<g id="POLYLINE_00000059309687068589377260000015046216120039114679_">
				<line class="st4" x1="753.628" y1="446.944" x2="712.178" y2="446.944"/>
			</g>
		</g>
	</g>
</g>
<g id="N-TEXT">
</g>
<g id="_x32_D_x24_AG-DETAILS-DIAGRAM">
	<g id="POLYLINE_00000093167262300755489880000011652976448364042635_">
		<g>
			<g>
				<line class="st5" x1="103.923" y1="261.683" x2="105.423" y2="261.683"/>
				<line class="st16" x1="111.539" y1="261.683" x2="291.978" y2="261.683"/>
				<line class="st5" x1="295.036" y1="261.683" x2="296.536" y2="261.683"/>
			</g>
		</g>
	</g>
</g>
<g id="_x32_D_x24_AG-DIAGRAM">
	<g id="POLYLINE_00000079454505455335158770000006457862475911639457_">
		<g>
			<g>
				<line class="st53" x1="84.162" y1="577.56" x2="86.162" y2="577.56"/>
				<line class="st68" x1="93.197" y1="577.56" x2="310.78" y2="577.56"/>
				<line class="st53" x1="314.297" y1="577.56" x2="316.297" y2="577.56"/>
			</g>
		</g>
	</g>
	<g id="POLYLINE_00000098899387961821411900000002888488138260735129_">
		<g>
			<g>
				<line class="st53" x1="404.905" y1="577.56" x2="406.905" y2="577.56"/>
				<line class="st68" x1="413.94" y1="577.56" x2="631.523" y2="577.56"/>
				<line class="st53" x1="635.04" y1="577.56" x2="637.04" y2="577.56"/>
			</g>
		</g>
	</g>
</g>
<g id="_x32_D_x24_AG-DETAILS">
</g>
<g id="_x32_D_x24_AG-OBJECTS">
	<g id="POLYLINE_00000010999079089414640920000013081008042097136799_">
		<path class="st77" d="M613.102,577.559c0.635,0.001,1.268-0.192,1.795-0.546c0.502-0.336,0.906-0.816,1.15-1.369
			c0.445-0.994,0.35-2.211-0.257-3.117c-0.542-0.831-1.485-1.379-2.475-1.439c-18.906-0.378-37.871-4.745-54.656-13.551
			c-4.617-2.447-9.076-5.366-12.897-8.948c-4.688-4.387-8.43-9.779-11.126-15.596c-1.637-3.538-2.912-7.291-3.767-11.095
			c-0.802-3.503-1.178-7.162-1.372-10.747c-0.564-14.224-0.249-103.294-0.184-117.642c0.12-5.591,0.427-11.416,1.3-16.934
			c0.925-6.015,2.765-11.984,6.095-17.119c3.337-5.233,8.115-9.392,12.856-13.32l13.695-10.981
			c10.795-8.862,20.86-18.929,29.699-29.745c7.401-9.104,14.074-18.964,18.98-29.645c3.273-7.097,5.79-14.639,7.48-22.269
			c1.775-7.996,2.705-16.276,3.113-24.45c0.471-9.412,0.244-19.331-0.292-28.746c-1.927-35.827-12.344-95.258-17.585-131.359
			c-0.083-0.547-0.415-1.051-0.886-1.342c-0.362-0.227-0.802-0.329-1.228-0.283c-0.392,0.041-0.77,0.205-1.066,0.465
			c-0.355,0.308-0.59,0.747-0.647,1.213c4.002,27.394,11.154,71.358,14.476,98.606c2.21,18.473,3.965,37.563,3.55,56.178
			c-0.25,10.248-1.235,20.651-3.611,30.638c-1.616,6.812-3.927,13.506-6.866,19.861c-4.587,9.096-11.456,16.945-19.355,23.322
			c-4.676,3.768-9.758,7.133-15.1,9.877c-10.365,5.353-21.804,8.46-33.342,9.953c-6.45,0.843-13.098,1.197-19.605,1.203
			c-6.073-0.007-12.299-0.314-18.325-1.043c-11.686-1.397-23.294-4.407-33.836-9.713c-5.211-2.608-10.186-5.807-14.777-9.394
			c-8.37-6.54-15.664-14.683-20.465-24.204c-2.939-6.357-5.251-13.047-6.866-19.861c-2.376-9.987-3.361-20.389-3.611-30.638
			c-0.416-18.613,1.339-37.705,3.55-56.178c3.302-27.158,10.508-71.342,14.473-98.632c-0.067-0.482-0.324-0.934-0.704-1.237
			c-0.333-0.268-0.757-0.421-1.185-0.426c-0.368-0.005-0.737,0.098-1.049,0.293c-0.471,0.292-0.803,0.793-0.886,1.342
			c-5.277,36.367-15.626,95.267-17.585,131.359c-0.57,10.055-0.791,20.575-0.189,30.628c0.483,8.086,1.506,16.276,3.377,24.164
			c1.672,7.069,4.071,14.075,7.113,20.672c4.906,10.679,11.58,20.543,18.98,29.645c8.838,10.813,18.904,20.886,29.699,29.745
			l13.695,10.981c4.742,3.929,9.519,8.087,12.857,13.32c3.33,5.135,5.17,11.104,6.095,17.119c0.872,5.515,1.181,11.349,1.3,16.934
			c0.065,14.315,0.38,103.469-0.183,117.642c-0.19,3.351-0.516,6.769-1.221,10.05c-0.699,3.315-1.722,6.61-3.018,9.74
			c-2.952,7.118-7.422,13.682-13.249,18.753c-5.88,5.122-12.924,8.763-20.064,11.798c-13.944,5.907-29.059,9.006-44.176,9.533
			c0,0-1.948,0.056-1.948,0.056s-0.035,0.001-0.035,0.001c-0.069,0.002-0.146,0.008-0.214,0.014
			c-0.223,0.022-0.446,0.069-0.66,0.137c-0.913,0.287-1.677,1.003-2.02,1.897c-0.245,0.627-0.286,1.331-0.125,1.984
			c0.134,0.539,0.41,1.043,0.794,1.445c0.418,0.44,0.965,0.758,1.554,0.904C474.34,577.741,566.816,577.465,613.102,577.559z"/>
	</g>
	<g id="POLYLINE_00000036964213601291747610000008888267294214567330_">
		<line class="st77" x1="439.201" y1="67.306" x2="602.745" y2="67.306"/>
	</g>
	<g id="POLYLINE_00000070832711755359827690000012050275995653931936_">
		<path class="st77" d="M118.661,67.312c0,0-0.153-0.005-0.153-0.005c-0.049-0.005-0.101,0.002-0.15,0.002
			c-0.144,0.008-0.289,0.031-0.428,0.071c-0.318,0.09-0.612,0.263-0.845,0.498c-0.204,0.205-0.361,0.457-0.455,0.731
			c-5.115,34.452-15.136,93.087-17.381,127.204c-0.787,11.555-1.163,23.553-0.476,35.117c0.661,11.283,2.412,22.634,5.979,33.382
			c4.599,14.112,12.363,27.044,21.53,38.65c9.311,11.781,20.057,22.665,31.659,32.194l13.695,10.981
			c4.742,3.929,9.519,8.087,12.856,13.32c3.33,5.135,5.17,11.104,6.095,17.119c0.872,5.515,1.181,11.349,1.3,16.934
			c0.139,10.053,0.194,103.047-0.026,113.713c-0.085,2.909-0.235,6.042-0.565,8.924c-0.515,4.577-1.633,9.116-3.282,13.416
			c-2.172,5.663-5.29,11.008-9.268,15.594c-5.988,6.959-14.104,11.694-22.407,15.388c-11.703,5.231-24.311,8.498-37.054,9.829
			c-3.726,0.401-7.762,0.62-11.508,0.725c-0.367,0.037-0.728,0.137-1.061,0.295c-0.958,0.447-1.659,1.393-1.805,2.441
			c-0.078,0.544-0.026,1.109,0.167,1.625c0.205,0.555,0.567,1.051,1.033,1.415c0.314,0.246,0.674,0.433,1.055,0.548
			c0.215,0.065,0.437,0.107,0.66,0.126c-0.07,0.08,92.359-0.034,92.4,0.012c0.209-0.181,92.124,0.137,92.323-0.006
			c0.249-0.015,0.499-0.059,0.738-0.131c0.381-0.115,0.742-0.302,1.055-0.548c0.508-0.397,0.892-0.951,1.085-1.566
			c0.15-0.474,0.186-0.982,0.115-1.474c-0.147-1.035-0.827-1.97-1.769-2.424c-0.343-0.168-0.717-0.275-1.097-0.313
			c-3.752-0.105-7.776-0.324-11.508-0.725c-12.744-1.331-25.35-4.597-37.054-9.829c-8.303-3.693-16.419-8.429-22.407-15.388
			c-3.978-4.586-7.096-9.931-9.268-15.594c-1.649-4.299-2.767-8.84-3.282-13.416c-0.33-2.879-0.478-6.025-0.564-8.923
			c-0.219-10.755-0.167-103.535-0.026-113.713c0.12-5.591,0.427-11.416,1.3-16.934c0.925-6.015,2.765-11.984,6.095-17.119
			c3.337-5.233,8.115-9.392,12.856-13.32l13.695-10.981c11.602-9.531,22.348-20.411,31.659-32.194
			c8.84-11.202,16.393-23.624,21.031-37.17c7.746-22.38,7.521-46.619,6.003-69.979c-2.212-33.848-12.306-93.039-17.381-127.204
			c-0.094-0.273-0.252-0.526-0.456-0.731c-0.238-0.24-0.539-0.416-0.865-0.503c-0.067-0.017-0.137-0.034-0.205-0.044
			c-0.099-0.015-0.201-0.024-0.301-0.024c-0.012,0.002-0.038-0.001-0.051,0.001c0,0-0.153,0.005-0.153,0.005H118.661z"/>
	</g>
	<g id="POLYLINE_00000013178712103561415220000016991179463803288213_">
		<path class="st77" d="M257.062,322.051c-12.164,10.907-30.749,19.02-46.84,21.617c-3.279,0.52-6.671,0.841-9.992,0.843
			c-3.321-0.002-6.714-0.322-9.992-0.843c-16.087-2.596-34.673-10.707-46.84-21.617"/>
	</g>
	<g id="POLYLINE_00000077295732474080938920000012418455148670554003_">
		<path class="st77" d="M897.543,312.897c0.03-28.259-14.536-54.778-38.401-69.912c-20.182-12.869-45.28-16.347-68.201-9.448
			c-23.168,6.899-42.373,23.868-52.071,46.011c-9.189,20.805-9.339,44.833-0.411,65.751c9.566,22.599,28.963,39.956,52.482,46.96
			c22.921,6.898,48.019,3.421,68.201-9.448C883.006,367.675,897.573,341.157,897.543,312.897z"/>
	</g>
	<g id="POLYLINE_00000117655636392737510350000001243475613591844509_">
		<path class="st77" d="M916.52,312.897c0.034-34.74-17.862-67.32-47.198-85.928c-24.818-15.82-55.641-20.091-83.825-11.613
			c-28.917,8.617-52.739,29.932-64.505,57.718c-10.802,25.318-10.802,54.328,0,79.646c11.766,27.785,35.587,49.101,64.505,57.718
			c28.184,8.478,59.007,4.207,83.825-11.613C898.658,380.217,916.555,347.638,916.52,312.897z"/>
	</g>
</g>
<g id="_x32_D_x24_AG-OUTLINE">
	<g id="POLYLINE_00000002368862897954612100000014909276016605604508_">
		<path class="st78" d="M613.412,577.552c0.566-0.06,1.117-0.269,1.578-0.604c0.47-0.339,0.845-0.808,1.073-1.34
			c0.433-1,0.324-2.215-0.295-3.114c-0.552-0.822-1.499-1.358-2.488-1.407c-19.244-0.39-38.565-4.907-55.559-14.054
			c-4.274-2.336-8.399-5.105-11.958-8.442c-4.688-4.387-8.43-9.779-11.126-15.596c-1.637-3.538-2.912-7.291-3.767-11.095
			c-0.802-3.503-1.177-7.162-1.372-10.747c-0.564-14.224-0.249-103.294-0.184-117.642c0.12-5.591,0.427-11.416,1.3-16.934
			c0.925-6.015,2.765-11.984,6.095-17.119c3.337-5.233,8.115-9.392,12.856-13.32l13.695-10.981
			c11.602-9.531,22.348-20.411,31.659-32.194c8.84-11.202,16.393-23.624,21.031-37.17c7.746-22.38,7.521-46.619,6.003-69.979
			c-2.212-33.848-12.306-93.039-17.381-127.204c-0.094-0.273-0.252-0.526-0.456-0.731c-0.238-0.24-0.539-0.416-0.865-0.503
			c-0.067-0.017-0.137-0.034-0.205-0.044c-0.099-0.015-0.201-0.024-0.301-0.024c-0.012,0.002-0.038-0.001-0.05,0.001
			c0,0-0.153,0.005-0.153,0.005H439.404l-0.153-0.005c-0.049-0.005-0.101,0.002-0.15,0.002c-0.144,0.008-0.289,0.031-0.428,0.071
			c-0.318,0.09-0.612,0.263-0.845,0.498c-0.204,0.205-0.361,0.457-0.455,0.731c-5.115,34.452-15.136,93.087-17.381,127.204
			c-0.787,11.555-1.163,23.553-0.476,35.117c0.661,11.283,2.412,22.634,5.979,33.382c4.599,14.112,12.363,27.044,21.53,38.65
			c9.311,11.781,20.057,22.665,31.659,32.194l13.695,10.981c4.742,3.929,9.519,8.087,12.857,13.32
			c3.33,5.135,5.17,11.104,6.095,17.119c0.872,5.515,1.181,11.349,1.3,16.934c0.179,6.955,0.12,103.138,0.026,111.513
			c-0.067,2.49-0.133,5.419-0.32,7.895c-0.241,3.48-0.73,6.995-1.594,10.376c-1.022,4.047-2.515,8.014-4.424,11.726
			c-2.592,5.031-5.998,9.698-10.136,13.569c-3.821,3.582-8.279,6.5-12.897,8.948c-16.786,8.806-35.75,13.174-54.656,13.551
			c-0.976,0.059-1.907,0.593-2.452,1.405c-0.619,0.899-0.729,2.114-0.295,3.114c0.232,0.543,0.618,1.02,1.101,1.361
			c0.455,0.323,0.995,0.525,1.55,0.584H613.412z"/>
	</g>
	<g id="POLYLINE_00000114064082488215387740000016417729869273841549_">
		<path class="st78" d="M292.669,577.552c0.566-0.06,1.117-0.269,1.578-0.604c0.47-0.339,0.845-0.808,1.073-1.34
			c0.433-1,0.324-2.215-0.295-3.114c-0.552-0.822-1.499-1.358-2.488-1.407c-19.244-0.39-38.565-4.907-55.559-14.054
			c-4.274-2.336-8.399-5.105-11.958-8.442c-4.688-4.387-8.43-9.779-11.126-15.596c-1.637-3.538-2.912-7.291-3.767-11.095
			c-0.802-3.503-1.178-7.162-1.372-10.747c-0.564-14.224-0.249-103.294-0.184-117.642c0.12-5.591,0.427-11.416,1.3-16.934
			c0.925-6.015,2.765-11.984,6.095-17.119c3.337-5.233,8.115-9.392,12.856-13.32l13.695-10.981
			c11.196-9.206,21.588-19.638,30.663-30.94c8.896-11.096,16.608-23.365,21.446-36.789c7.329-19.971,8.017-41.691,7.099-62.736
			c-1.654-38.032-12.299-97.808-17.877-136.024c-0.087-0.282-0.241-0.544-0.444-0.758c-0.237-0.251-0.543-0.436-0.876-0.53
			c-0.067-0.017-0.137-0.036-0.205-0.046c-0.093-0.015-0.188-0.025-0.282-0.027c0,0-0.02,0-0.02,0l-0.02,0
			c-0.012-0.001-0.038,0.001-0.051,0.001c0,0-0.153,0.005-0.153,0.005H118.661c0,0-0.153-0.005-0.153-0.005
			c-0.049-0.003-0.101,0.001-0.15,0.002c-0.151,0.008-0.303,0.033-0.448,0.077c-0.317,0.093-0.61,0.27-0.84,0.508
			c-0.201,0.207-0.355,0.46-0.446,0.735c-5.38,36.527-15.657,95.413-17.662,131.673c-1.208,22.077-0.973,44.924,6.466,65.995
			c4.817,13.859,12.701,26.516,21.85,37.919c9.074,11.3,19.468,21.737,30.663,30.94l13.695,10.981
			c4.742,3.929,9.519,8.087,12.856,13.32c3.33,5.135,5.17,11.104,6.095,17.119c0.872,5.515,1.181,11.349,1.3,16.934
			c0.179,6.955,0.12,103.138,0.026,111.513c-0.067,2.49-0.133,5.419-0.32,7.895c-0.241,3.48-0.73,6.995-1.594,10.376
			c-1.022,4.047-2.515,8.014-4.424,11.726c-2.592,5.031-5.998,9.698-10.136,13.569c-3.821,3.582-8.279,6.5-12.897,8.948
			c-16.786,8.806-35.75,13.174-54.656,13.551c-0.976,0.059-1.907,0.593-2.452,1.405c-0.619,0.899-0.729,2.114-0.295,3.114
			c0.232,0.543,0.618,1.02,1.101,1.361c0.455,0.323,0.995,0.525,1.55,0.584C107.791,577.552,292.669,577.552,292.669,577.552z"/>
	</g>
	<g id="POLYLINE_00000108275735272954943460000017470285911667714493_">
		<path class="st78" d="M916.52,312.897c0.034-34.74-17.862-67.32-47.198-85.928c-24.818-15.82-55.641-20.091-83.825-11.613
			c-28.917,8.617-52.739,29.932-64.505,57.718c-10.802,25.318-10.802,54.328,0,79.646c11.766,27.785,35.587,49.101,64.505,57.718
			c28.184,8.478,59.007,4.207,83.825-11.613C898.658,380.217,916.555,347.638,916.52,312.897z"/>
	</g>
</g>
</svg>
